<svg width="1216" height="329" viewBox="0 0 1216 329" fill="none" xmlns="http://www.w3.org/2000/svg">
<path d="M88.9102 0.119324H239.09C288.185 0.119324 328 39.9343 328 89.0296V239.209C328 288.304 288.185 328.119 239.09 328.119H88.9102C39.815 328.119 0 288.304 0 239.209V89.0296C0 39.9343 39.815 0.119324 88.9102 0.119324Z" fill="#F4F4F4"/>
<path d="M163.05 184L181.6 107.35L196.65 51H240.4L256.15 296H210.3L203.65 162.3H201.9L176.7 261H148L122.8 162.3H121.05L114.4 296H68.55L84.3 51H128.05L143.1 107.35L161.65 184H163.05Z" fill="#4E5CA6"/>
<path d="M490.75 190L504 135.25L514.75 95H546L557.25 270H524.5L519.75 174.5H518.5L500.5 245H480L462 174.5H460.75L456 270H423.25L434.5 95H465.75L476.5 135.25L489.75 190H490.75Z" fill="#303031"/>
<path d="M636.391 212.25H609.641C606.141 216.583 604.391 222 604.391 228.5C604.391 235 606.224 240.083 609.891 243.75H636.391V212.25ZM582.641 142.25H644.641C654.641 148.25 661.224 155.167 664.391 163C667.557 170.667 669.141 181.167 669.141 194.5V232C669.141 245.833 669.474 258.5 670.141 270H641.641L637.141 261C630.641 267 621.474 270 609.641 270H593.891C579.724 260.667 572.641 247.25 572.641 229.75C572.641 212.083 579.891 198.167 594.391 188H617.891C624.391 188 630.474 190 636.141 194V181.5C636.141 175 633.307 170.667 627.641 168.5H582.641V142.25Z" fill="#303031"/>
<path d="M757.486 214.25V168.5H727.486V222.25C727.486 232.417 729.236 239.583 732.736 243.75H747.986V270H712.486C703.653 261.833 698.32 253 696.486 243.5C694.986 235.5 694.236 225.75 694.236 214.25V168.5H676.986V142.25H694.236V107.5H727.486V142.25H757.486V107.5H790.736V142.25H811.236V168.5H790.736V222.25C790.736 232.417 792.486 239.583 795.986 243.75H811.236V270H775.736C766.903 261.833 761.57 253 759.736 243.5C758.236 235.5 757.486 225.75 757.486 214.25Z" fill="#303031"/>
<path d="M886.344 142.25H910.094C917.427 151.583 922.427 160.917 925.094 170.25C927.76 179.583 929.094 191.25 929.094 205.25V270H895.844V202.75C895.844 186.917 893.677 175.5 889.344 168.5H861.344V270H828.094V95H861.344V151.25C865.01 147.917 868.427 145.583 871.594 144.25C874.927 142.917 879.844 142.25 886.344 142.25Z" fill="#303031"/>
<path d="M949.676 270V142.25H982.676V270H949.676ZM949.676 95H982.676V128.75H949.676V95Z" fill="#303031"/>
<path d="M1061.87 168.5H1043.12C1040.62 171.5 1038.54 175.667 1036.87 181C1035.37 186.333 1034.62 191.5 1034.62 196.5H1070.37C1070.7 191.5 1070.04 186.333 1068.37 181C1066.7 175.5 1064.54 171.333 1061.87 168.5ZM1095.87 243.75V270H1032.37C1020.7 262.167 1012.45 252.5 1007.62 241C1002.95 229.333 1000.62 217.583 1000.62 205.75C1000.62 178.417 1010.95 157.25 1031.62 142.25H1072.12C1083.29 150.417 1090.87 159.083 1094.87 168.25C1098.87 177.417 1100.87 186.667 1100.87 196C1100.87 205.333 1100.12 213.333 1098.62 220H1036.37C1036.87 223.833 1038.29 228.25 1040.62 233.25C1043.12 238.083 1045.79 241.583 1048.62 243.75H1095.87Z" fill="#303031"/>
<path d="M1161.89 270H1135.64C1128.31 260.667 1123.31 251.333 1120.64 242C1117.98 232.667 1116.64 221 1116.64 207V142.25H1149.89V209.5C1149.89 224.667 1152.89 236.083 1158.89 243.75H1182.14V142.25H1215.39V270H1189.14L1184.64 261C1178.31 267 1170.73 270 1161.89 270Z" fill="#303031"/>
</svg>
