<svg width="1199" height="564" viewBox="0 0 1199 564" fill="none" xmlns="http://www.w3.org/2000/svg">
<path d="M90.1 77H240.6C289.8 77 329.7 116.9 329.7 166.1V316.6C329.7 365.8 289.8 405.7 240.6 405.7H90.1C40.9 405.7 1 365.8 1 316.6V166.1C1 116.9 40.9 77 90.1 77Z" fill="#F4F4F4" stroke="#F4F4F4" stroke-width="2" stroke-miterlimit="10"/>
<path d="M164.05 266H162.65H164.05L182.6 189.35L197.65 133H241.4L257.15 378H211.3L204.65 244.3H202.9L177.7 343H149L123.8 244.3H122.05L115.4 378H69.55L85.3 133H129.05L144.1 189.35L162.65 266H164.05Z" fill="#4E5CA6"/>
<path d="M462.75 246H461.75H462.75L476 191.25L486.75 151H518L529.25 326H496.5L491.75 230.5H490.5L472.5 301H452L434 230.5H432.75L428 326H395.25L406.5 151H437.75L448.5 191.25L461.75 246H462.75ZM608.391 268.25H581.641C578.141 272.583 576.391 278 576.391 284.5C576.391 291 578.224 296.083 581.891 299.75H608.391V268.25ZM554.641 198.25H616.641C626.641 204.25 633.224 211.167 636.391 219C639.557 226.667 641.141 237.167 641.141 250.5V288C641.141 301.833 641.474 314.5 642.141 326H613.641L609.141 317C602.641 323 593.474 326 581.641 326H565.891C551.724 316.667 544.641 303.25 544.641 285.75C544.641 268.083 551.891 254.167 566.391 244H589.891C596.391 244 602.474 246 608.141 250V237.5C608.141 231 605.307 226.667 599.641 224.5H554.641V198.25ZM729.486 270.25V224.5H699.486V278.25C699.486 288.417 701.236 295.583 704.736 299.75H719.986V326H684.486C675.653 317.833 670.32 309 668.486 299.5C666.986 291.5 666.236 281.75 666.236 270.25V224.5H648.986V198.25H666.236V163.5H699.486V198.25H729.486V163.5H762.736V198.25H783.236V224.5H762.736V278.25C762.736 288.417 764.486 295.583 767.986 299.75H783.236V326H747.736C738.903 317.833 733.57 309 731.736 299.5C730.236 291.5 729.486 281.75 729.486 270.25ZM858.344 198.25H882.094C889.427 207.583 894.427 216.917 897.094 226.25C899.76 235.583 901.094 247.25 901.094 261.25V326H867.844V258.75C867.844 242.917 865.677 231.5 861.344 224.5H833.344V326H800.094V151H833.344V207.25C837.01 203.917 840.427 201.583 843.594 200.25C846.927 198.917 851.844 198.25 858.344 198.25ZM921.676 326V198.25H954.676V326H921.676ZM921.676 151H954.676V184.75H921.676V151ZM1033.87 224.5H1015.12C1012.62 227.5 1010.54 231.667 1008.87 237C1007.37 242.333 1006.62 247.5 1006.62 252.5H1042.37C1042.7 247.5 1042.04 242.333 1040.37 237C1038.7 231.5 1036.54 227.333 1033.87 224.5ZM1067.87 299.75V326H1004.37C992.702 318.167 984.452 308.5 979.619 297C974.952 285.333 972.619 273.583 972.619 261.75C972.619 234.417 982.952 213.25 1003.62 198.25H1044.12C1055.29 206.417 1062.87 215.083 1066.87 224.25C1070.87 233.417 1072.87 242.667 1072.87 252C1072.87 261.333 1072.12 269.333 1070.62 276H1008.37C1008.87 279.833 1010.29 284.25 1012.62 289.25C1015.12 294.083 1017.79 297.583 1020.62 299.75H1067.87ZM1133.89 326H1107.64C1100.31 316.667 1095.31 307.333 1092.64 298C1089.98 288.667 1088.64 277 1088.64 263V198.25H1121.89V265.5C1121.89 280.667 1124.89 292.083 1130.89 299.75H1154.14V198.25H1187.39V326H1161.14L1156.64 317C1150.31 323 1142.73 326 1133.89 326Z" fill="white"/>
</svg>
